<?xml version="1.0" encoding="UTF-8"?>
<svg version="1.1" xmlns="http://www.w3.org/2000/svg" width="1024" height="1024">
<path d="M0 0 C337.92 0 675.84 0 1024 0 C1024 337.92 1024 675.84 1024 1024 C686.08 1024 348.16 1024 0 1024 C0 686.08 0 348.16 0 0 Z " fill="#061F41" transform="translate(0,0)"/>
<path d="M0 0 C2.06034204 -0.00373896 4.12068265 -0.00834146 6.18102103 -0.01373065 C11.83027156 -0.02594566 17.47946279 -0.02570194 23.1287235 -0.02334189 C29.22637871 -0.02293335 35.32401501 -0.03397646 41.42166138 -0.04345703 C53.36348157 -0.06005973 65.30528268 -0.06559219 77.24711146 -0.06668179 C86.95546251 -0.0676018 96.66380717 -0.0717233 106.37215614 -0.07808304 C109.1693593 -0.0798782 111.96656246 -0.08165783 114.76376563 -0.08343279 C115.45921162 -0.08387489 116.1546576 -0.08431699 116.8711777 -0.08477248 C136.42621903 -0.09707658 155.98125815 -0.10497404 175.53630352 -0.10408592 C176.64164106 -0.10403919 176.64164106 -0.10403919 177.76930865 -0.10399151 C181.50395559 -0.1038253 185.23860252 -0.10362722 188.97324946 -0.10342209 C189.71492793 -0.1033822 190.45660641 -0.10334231 191.22075999 -0.10330121 C192.72061406 -0.10322034 194.22046812 -0.10313674 195.72032219 -0.10305043 C219.05061835 -0.10182518 242.38085635 -0.11683502 265.71113586 -0.14419556 C291.93921575 -0.17494201 318.16725743 -0.19212651 344.39535648 -0.19026911 C347.19413141 -0.19011986 349.99290635 -0.19002244 352.79168129 -0.18996048 C353.82532963 -0.18992552 353.82532963 -0.18992552 354.87985975 -0.18988985 C365.95068224 -0.1898284 377.02145407 -0.20257904 388.09226152 -0.21982501 C399.2261791 -0.23681011 410.36003766 -0.23839082 421.49396505 -0.22560637 C427.52112764 -0.2190813 433.54810739 -0.21894317 439.57525253 -0.23631287 C445.09926262 -0.25206851 450.62294526 -0.24915421 456.14694748 -0.2317446 C458.13882837 -0.22868024 460.13073386 -0.23228567 462.12258574 -0.24346475 C481.76134994 -0.34633218 498.46348449 2.63833955 513.16645813 16.82992554 C525.04806553 28.8860932 531.00089122 43.76014443 531.11682129 60.61749268 C531.12622228 61.44594755 531.13562328 62.27440243 531.14530915 63.12796199 C531.17549654 65.90472943 531.19877521 68.68150871 531.22187805 71.45834351 C531.24175589 73.46072317 531.26195253 75.46309968 531.28244209 77.46547318 C531.33690392 82.94894214 531.38452013 88.43245072 531.43022943 93.91599894 C531.45959076 97.40408193 531.49048374 100.89214842 531.52176476 104.38021469 C531.97693161 155.52122848 532.16797632 206.66298417 532.20570564 257.80591202 C532.21614801 271.76476172 532.23767468 285.72345879 532.27920482 299.68224372 C532.3123224 310.91005265 532.32995062 322.1378089 532.33348244 333.36567295 C532.33580871 339.57698835 532.34447077 345.78812618 532.36994362 351.99939346 C532.39324299 357.75784032 532.39745036 363.51599133 532.38718224 369.27447319 C532.38668945 371.36782129 532.39293304 373.46118459 532.40673828 375.55448723 C532.53614381 396.33811723 529.300608 415.56166238 514.14302063 431.09945679 C513.408255 431.81488647 512.67348938 432.53031616 511.91645813 433.26742554 C511.3260675 433.89004272 510.73567688 434.51265991 510.12739563 435.15414429 C505.93122515 439.26713077 501.16960777 441.92848721 495.97895813 444.57992554 C494.99463806 445.0867688 494.99463806 445.0867688 493.99043274 445.60385132 C486.10977323 449.44926269 478.37381894 450.57049413 469.67193604 450.50793457 C468.34345566 450.51049784 468.34345566 450.51049784 466.9881373 450.5131129 C464.04480755 450.51638561 461.10170995 450.50544092 458.15840149 450.49447632 C456.03887436 450.49391172 453.91934685 450.49422971 451.79981995 450.49536133 C446.06289806 450.49593396 440.32606022 450.48419411 434.58915782 450.47021341 C428.58738684 450.45769114 422.58561382 450.45653437 416.58383179 450.4541626 C405.22621227 450.44795224 393.86863136 450.43154739 382.51102883 450.41146362 C369.57757702 450.38909083 356.64412335 450.37810771 343.710657 450.36807275 C317.11256439 450.34718079 290.51452469 450.31051006 263.91645813 450.26742554 C263.91645813 468.74742554 263.91645813 487.22742554 263.91645813 506.26742554 C274.76585266 506.19781616 274.76585266 506.19781616 285.83442688 506.12680054 C290.41451934 506.10636425 294.99455565 506.0871086 299.57466125 506.07211304 C306.84569461 506.0481945 314.11652664 506.01988792 321.3874054 505.96566772 C327.24885579 505.92223104 333.11009031 505.8982927 338.97168922 505.88791656 C341.20883394 505.88052135 343.44596674 505.86608038 345.68301964 505.84450531 C348.8147225 505.81550097 351.94553141 505.81146839 355.0773468 505.81332397 C356.00379501 505.79894287 356.93024323 505.78456177 357.88476562 505.76974487 C362.10313913 505.79682006 364.3232724 505.89757227 367.97622681 508.17520142 C370.52526201 510.92392156 370.92841694 512.59173234 371.19380188 516.23226929 C370.68426091 519.97129525 368.59682581 521.71172612 365.91645813 524.26742554 C363.54627758 525.45251581 362.11502219 525.3968882 359.47043228 525.40443993 C358.52963357 525.40951447 357.58883486 525.41458901 356.6195271 525.41981733 C355.57888946 525.42031509 354.53825182 525.42081284 353.46607971 525.42132568 C352.36604512 525.42570794 351.26601053 525.43009019 350.13264155 525.43460524 C346.42158135 525.4480322 342.7105449 525.45418083 338.99946594 525.46029663 C336.3488395 525.46819448 333.69821615 525.47645786 331.04759216 525.4850769 C323.07503291 525.50961279 315.10246738 525.52422978 307.12988198 525.53713697 C304.87868371 525.54084803 302.62748606 525.54482134 300.37628841 525.54888964 C286.40159277 525.57412524 272.42689617 525.59618196 258.45218277 525.60861778 C255.21436306 525.61154756 251.97654339 525.61450921 248.73872375 525.61752319 C247.93396263 525.61826924 247.12920151 525.61901529 246.30005369 525.61978395 C233.26118369 525.63243963 220.22244999 525.66566477 207.18364373 525.70732503 C193.80194367 525.74973094 180.42031341 525.77331125 167.03854632 525.77853835 C159.52314023 525.781954 152.00794714 525.79372712 144.49260712 525.82664108 C138.0925368 525.85462442 131.69272312 525.86564862 125.29259637 525.85444562 C122.02687439 525.84925434 118.76180336 525.85489416 115.49613571 525.87691116 C111.95522881 525.89948765 108.41568351 525.89135961 104.87477112 525.87542725 C103.84305637 525.88930933 102.81134161 525.90319142 101.74836278 525.91749418 C97.18131238 525.8667361 93.93763241 525.7895727 90.29406357 522.85442543 C87.75398471 520.09064316 87.03926932 519.16804096 86.54145813 515.51742554 C86.94454251 512.0240276 87.87874645 510.16556161 90.20155907 507.53470993 C93.67894569 504.96497397 97.78174297 505.49138617 101.93916321 505.58627319 C102.94451111 505.58539703 103.94985901 505.58452087 104.985672 505.58361816 C108.30323936 505.58779286 111.61877598 505.63444199 114.93598938 505.68148804 C117.23811743 505.69268053 119.54025978 505.70122046 121.84240723 505.70721436 C127.8975632 505.73010808 133.95185373 505.78903767 140.00666809 505.85543823 C147.2735938 505.92764754 154.54080912 505.95516404 161.80799103 505.99015808 C172.84474838 506.04831488 183.87960736 506.16328611 194.91645813 506.26742554 C194.91645813 487.78742554 194.91645813 469.30742554 194.91645813 450.26742554 C185.21936462 450.30670166 185.21936462 450.30670166 175.32637024 450.34677124 C153.95259929 450.42966799 132.57882197 450.48512363 111.20493221 450.5264864 C98.24760664 450.55222977 85.29043374 450.58730643 72.33320618 450.6446228 C61.03510433 450.69457605 49.73711309 450.72674463 38.43890387 450.73786801 C32.46070598 450.74436653 26.48282446 450.75955937 20.50472832 450.79607582 C14.86829707 450.8302236 9.23231001 450.84044068 3.59578514 450.83296394 C1.53637522 450.83433012 -0.52305085 450.8441497 -2.58237076 450.86345291 C-22.94802713 451.0448543 -38.14870898 446.92152151 -53.39604187 432.45492554 C-67.64633447 417.54129669 -72.59784383 400.08937852 -72.4197998 379.82572937 C-72.41840594 378.41508034 -72.41833951 377.00442949 -72.41946906 375.59378022 C-72.41873492 371.75439683 -72.39928901 367.91531075 -72.37651384 364.07600343 C-72.35520624 359.92128677 -72.35153439 355.76654773 -72.3455658 351.61178589 C-72.33110963 343.48805294 -72.3004584 335.36445931 -72.26411245 327.24079791 C-72.22229425 317.77232385 -72.19606596 308.30382539 -72.17028614 298.83529641 C-72.12369456 281.93851194 -72.06213163 265.04181476 -71.99247742 248.14511108 C-71.92495025 231.76297257 -71.86935758 215.38084841 -71.82646179 198.99862671 C-71.77967877 181.13899842 -71.72675906 163.27940952 -71.66276282 145.41983384 C-71.6559392 143.5145764 -71.64911623 141.60931895 -71.64229393 139.70406151 C-71.63892628 138.76674187 -71.63555863 137.82942223 -71.63208893 136.86369896 C-71.60875569 130.26886906 -71.5895896 123.67403456 -71.57189369 117.07918739 C-71.55012857 109.04103982 -71.52107827 101.00295596 -71.48291443 92.96486894 C-71.46361019 88.8664214 -71.44738018 84.76802575 -71.43970299 80.6695385 C-71.43256625 76.91371864 -71.41624639 73.1580519 -71.3927693 69.40229966 C-71.38261451 67.40911017 -71.38203652 65.41587887 -71.38186389 63.42266351 C-71.25545866 47.1432517 -67.07156361 34.2425192 -57.08354187 21.26742554 C-56.34104187 20.23617554 -55.59854187 19.20492554 -54.83354187 18.14242554 C-39.13123567 1.72637814 -21.34460208 -0.03667561 0 0 Z " fill="#061F40" transform="translate(278.0835418701172,221.73257446289063)"/>
<path d="M0 0 C1.53010712 -0.00935994 1.53010712 -0.00935994 3.09112549 -0.01890898 C6.51419084 -0.03488165 9.93654832 -0.0222172 13.35961914 -0.00964355 C15.81214311 -0.01506302 18.26466382 -0.02218468 20.71717834 -0.03088379 C26.692034 -0.04725029 32.66661133 -0.04482499 38.64145619 -0.03323323 C43.50203573 -0.02419474 48.362559 -0.02297671 53.22314453 -0.02732849 C53.91532936 -0.02794142 54.60751418 -0.02855436 55.3206743 -0.02918586 C56.72699914 -0.03046481 58.13332396 -0.03176166 59.53964877 -0.03307623 C72.73144528 -0.04448553 85.92313066 -0.0313664 99.11490893 -0.00987476 C110.41414555 0.00796492 121.71321759 0.00491873 133.01245117 -0.0135498 C146.14506328 -0.03500507 159.27757769 -0.04335357 172.41020489 -0.03110075 C173.81376329 -0.02982663 175.2173217 -0.02856915 176.62088013 -0.02732849 C177.65661135 -0.02640284 177.65661135 -0.02640284 178.71326643 -0.02545848 C183.55934639 -0.02201714 188.40536402 -0.02780824 193.25143433 -0.0372467 C199.79157416 -0.04970469 206.33145347 -0.0407042 212.87158012 -0.01766968 C215.2656039 -0.01240276 217.65965389 -0.01386155 220.05366707 -0.02272034 C240.87728891 -0.09263892 254.63436572 2.14829009 269.9453125 17.35559082 C271.63066177 19.05619321 273.30308611 20.76865155 274.97290039 22.48449707 C277.19251261 24.7580102 279.46222762 26.89752042 281.89477539 28.94543457 C286.46397494 32.81615776 290.59634085 37.11919493 294.80224609 41.37463379 C298.49573693 45.09562456 302.24430595 48.66091655 306.30883789 51.98059082 C313.84697366 58.96497728 316.8198751 68.08001423 317.40285683 78.10926437 C317.63707423 85.06402788 317.57651058 92.01687428 317.52490234 98.97424316 C317.52349024 101.64625064 317.52406747 104.31818948 317.52711487 106.9901886 C317.5297227 112.71899567 317.51418241 118.4475156 317.48592567 124.17625046 C317.44509946 132.45874571 317.43224904 140.74110367 317.42598572 149.02368863 C317.41507233 162.46513034 317.38187887 175.90641938 317.33447266 189.34777832 C317.2885002 202.39627322 317.25314604 215.44472648 317.23193359 228.49328613 C317.23061998 229.29908381 317.22930636 230.10488148 317.22795293 230.93509726 C317.22142723 234.97799143 317.21510881 239.02088589 317.20889342 243.06378055 C317.15715257 276.54527695 317.06879384 310.02658441 316.95727539 343.50793457 C310.68727539 343.50793457 304.41727539 343.50793457 297.95727539 343.50793457 C297.95231017 341.47950078 297.95231017 341.47950078 297.94724464 339.41008854 C297.86819782 307.29715687 297.77896684 275.18427072 297.67722378 243.07140318 C297.66470517 239.11738588 297.65227235 235.16336832 297.63989258 231.20935059 C297.63619359 230.02860833 297.63619359 230.02860833 297.63241987 228.82401269 C297.59271472 216.08458065 297.55995745 203.34513977 297.52977557 190.60568202 C297.49864274 177.53023853 297.46002551 164.45483252 297.41448534 151.37943119 C297.38662815 143.31361884 297.36458312 135.24783386 297.35001288 127.18198638 C297.33820755 120.9932453 297.31598043 114.80458121 297.2898922 108.61588478 C297.28082683 106.07989739 297.27512862 103.54389536 297.27306175 101.00789261 C297.26973195 97.5427208 297.25423451 94.07780554 297.23574829 90.61268616 C297.23865039 89.11119399 297.23865039 89.11119399 297.24161112 87.57936865 C297.16729693 78.24680041 296.35211443 70.07458377 289.57739258 63.08410645 C288.02696833 61.6031944 286.43998566 60.17636327 284.83227539 58.75793457 C283.66792195 57.7089188 282.50517961 56.65811223 281.34399414 55.60559082 C280.77084473 55.08625977 280.19769531 54.56692871 279.60717773 54.03186035 C277.21512562 51.82245086 274.92924719 49.51532454 272.64477539 47.19543457 C269.19474396 43.70081468 265.6436877 40.42926215 261.91040039 37.24230957 C259.0096282 34.66642387 256.32014736 31.89432437 253.62133789 29.10949707 C252.03304806 27.42164733 252.03304806 27.42164733 249.95727539 26.50793457 C247.17740216 56.45133696 247.17740216 56.45133696 257.70727539 82.88293457 C259.49441736 84.68028082 261.31875844 86.36424785 263.24829102 88.00695801 C266.64380314 90.9891878 269.69199216 94.03760402 270.19218445 98.69541931 C270.07876825 104.7820887 269.64362618 110.76812214 268.96118164 116.81652832 C268.85252274 117.82050156 268.74386383 118.82447479 268.63191223 119.85887146 C268.26664617 123.22167945 267.89356506 126.58356401 267.51977539 129.94543457 C267.1153929 133.61786455 266.71221198 137.29042493 266.30926514 140.9630127 C266.0148729 143.64570384 265.71980957 146.32831498 265.4241333 149.01086426 C264.33786458 158.89150879 263.30043973 168.77674269 262.279953 178.66438293 C261.5991616 185.25928902 260.90798151 191.85309612 260.21463108 198.44669247 C259.72372597 203.12083556 259.23801802 207.79540023 258.76394653 212.47128296 C258.31205257 216.92631562 257.84617253 221.37967942 257.37033653 225.83221626 C257.19646858 227.48247111 257.02761329 229.13326325 256.86423683 230.78458977 C255.78378703 241.66965499 254.60060154 252.04283896 247.08227539 260.57043457 C246.3049707 261.47535645 245.52766602 262.38027832 244.72680664 263.31262207 C244.07639404 264.05850586 244.07639404 264.05850586 243.4128418 264.81945801 C240.473469 268.22916989 237.63070548 271.71993712 234.76977539 275.19543457 C233.89699951 276.24646362 233.89699951 276.24646362 233.0065918 277.31872559 C223.79480482 287.25655879 223.79480482 287.25655879 219.63842773 299.34655762 C219.61855804 300.32734787 219.59868835 301.30813812 219.57821655 302.31864929 C219.56666534 303.37498062 219.55511414 304.43131195 219.54321289 305.51965332 C219.52384674 306.60301468 219.50448059 307.68637604 219.48452759 308.80256653 C219.42469195 312.2667755 219.37833009 315.73101762 219.33227539 319.19543457 C219.29409932 321.54245436 219.25504781 323.88946009 219.21508789 326.2364502 C219.11898697 331.99349758 219.03497037 337.75061055 218.95727539 343.50793457 C212.35727539 343.50793457 205.75727539 343.50793457 198.95727539 343.50793457 C198.95727539 333.27793457 198.95727539 323.04793457 198.95727539 312.50793457 C127.01727539 312.50793457 55.07727539 312.50793457 -19.04272461 312.50793457 C-19.04272461 322.73793457 -19.04272461 332.96793457 -19.04272461 343.50793457 C-25.31272461 343.50793457 -31.58272461 343.50793457 -38.04272461 343.50793457 C-38.15613218 335.07529628 -38.24767209 326.64326066 -38.30178547 318.21006203 C-38.3277702 314.29327462 -38.36296065 310.37704041 -38.41992188 306.46057129 C-38.47464446 302.6738995 -38.50422859 298.88775644 -38.51711082 295.10071945 C-38.52627929 293.66311709 -38.54418182 292.22554044 -38.57137489 290.78816605 C-38.81948739 277.11739884 -34.76748919 269.08263747 -26.29272461 258.63293457 C-25.05150618 257.06288528 -23.81062115 255.49257236 -22.57006836 253.92199707 C-20.90826849 251.83728273 -19.24309359 249.75569483 -17.56665039 247.68273926 C-16.31720224 246.13432092 -15.08554563 244.5715938 -13.85522461 243.00793457 C-13.18104492 242.17262207 -12.50686523 241.33730957 -11.81225586 240.47668457 C-6.89444565 232.22605375 -5.82872137 221.94687506 -4.08178711 212.64074707 C-3.80700431 211.1974613 -3.53179739 209.75425622 -3.25619507 208.31112671 C-2.67988301 205.28764572 -2.10697986 202.26354722 -1.53686523 199.2388916 C-0.82329978 195.45330023 -0.10398889 191.66883372 0.61762619 187.88476944 C3.62760613 172.09670765 6.57846983 156.30072359 9.34091187 140.4671936 C10.39945079 134.43916707 11.57952258 128.47134785 12.95727539 122.50793457 C14.00326627 117.89365835 14.33192246 113.95611554 11.93188477 109.6817627 C9.074705 105.42812026 5.8332698 101.48449533 2.58227539 97.52893066 C0.1089182 94.4528413 -2.1551955 91.24056178 -4.41772461 88.00793457 C-5.16795898 86.94574707 -5.91819336 85.88355957 -6.69116211 84.78918457 C-7.06213516 84.24783875 -7.43310822 83.70649292 -7.81532288 83.14874268 C-9.01547118 81.46338586 -9.01547118 81.46338586 -10.55809021 79.99066162 C-16.55898143 73.53361503 -15.89905249 66.05960075 -15.80444336 57.77355957 C-15.80594774 56.24757589 -15.80938258 54.721593 -15.81465149 53.19561768 C-15.81896623 50.01140524 -15.80226588 46.82821156 -15.77001953 43.64416504 C-15.73010228 39.56596977 -15.73960108 35.4896685 -15.76425457 31.41141129 C-15.7784383 28.26628092 -15.7683532 25.12159287 -15.75074196 21.97649384 C-15.74490116 20.47262376 -15.74618128 18.96870829 -15.75476646 17.46485138 C-15.7627675 15.36523203 -15.73850808 13.268391 -15.70556641 11.16906738 C-15.69857224 9.97630188 -15.69157806 8.78353638 -15.68437195 7.55462646 C-15.04272461 4.50793457 -15.04272461 4.50793457 -13.13029194 2.34926224 C-8.73513323 -0.27187164 -5.030209 -0.04708787 0 0 Z " fill="#071E3F" transform="translate(303.042724609375,285.4920654296875)"/>
<path d="M0 0 C2.06034204 -0.00373896 4.12068265 -0.00834146 6.18102103 -0.01373065 C11.83027156 -0.02594566 17.47946279 -0.02570194 23.1287235 -0.02334189 C29.22637871 -0.02293335 35.32401501 -0.03397646 41.42166138 -0.04345703 C53.36348157 -0.06005973 65.30528268 -0.06559219 77.24711146 -0.06668179 C86.95546251 -0.0676018 96.66380717 -0.0717233 106.37215614 -0.07808304 C109.1693593 -0.0798782 111.96656246 -0.08165783 114.76376563 -0.08343279 C115.45921162 -0.08387489 116.1546576 -0.08431699 116.8711777 -0.08477248 C136.42621903 -0.09707658 155.98125815 -0.10497404 175.53630352 -0.10408592 C176.64164106 -0.10403919 176.64164106 -0.10403919 177.76930865 -0.10399151 C181.50395559 -0.1038253 185.23860252 -0.10362722 188.97324946 -0.10342209 C189.71492793 -0.1033822 190.45660641 -0.10334231 191.22075999 -0.10330121 C192.72061406 -0.10322034 194.22046812 -0.10313674 195.72032219 -0.10305043 C219.05061835 -0.10182518 242.38085635 -0.11683502 265.71113586 -0.14419556 C291.93921575 -0.17494201 318.16725743 -0.19212651 344.39535648 -0.19026911 C347.19413141 -0.19011986 349.99290635 -0.19002244 352.79168129 -0.18996048 C353.82532963 -0.18992552 353.82532963 -0.18992552 354.87985975 -0.18988985 C365.95068224 -0.1898284 377.02145407 -0.20257904 388.09226152 -0.21982501 C399.2261791 -0.23681011 410.36003766 -0.23839082 421.49396505 -0.22560637 C427.52112764 -0.2190813 433.54810739 -0.21894317 439.57525253 -0.23631287 C445.09926262 -0.25206851 450.62294526 -0.24915421 456.14694748 -0.2317446 C458.13882837 -0.22868024 460.13073386 -0.23228567 462.12258574 -0.24346475 C481.76134994 -0.34633218 498.46348449 2.63833955 513.16645813 16.82992554 C525.04806553 28.8860932 531.00089122 43.76014443 531.11682129 60.61749268 C531.12622228 61.44594755 531.13562328 62.27440243 531.14530915 63.12796199 C531.17549654 65.90472943 531.19877521 68.68150871 531.22187805 71.45834351 C531.24175589 73.46072317 531.26195253 75.46309968 531.28244209 77.46547318 C531.33690392 82.94894214 531.38452013 88.43245072 531.43022943 93.91599894 C531.45959076 97.40408193 531.49048374 100.89214842 531.52176476 104.38021469 C531.97693161 155.52122848 532.16797632 206.66298417 532.20570564 257.80591202 C532.21614801 271.76476172 532.23767468 285.72345879 532.27920482 299.68224372 C532.3123224 310.91005265 532.32995062 322.1378089 532.33348244 333.36567295 C532.33580871 339.57698835 532.34447077 345.78812618 532.36994362 351.99939346 C532.39324299 357.75784032 532.39745036 363.51599133 532.38718224 369.27447319 C532.38668945 371.36782129 532.39293304 373.46118459 532.40673828 375.55448723 C532.53614381 396.33811723 529.300608 415.56166238 514.14302063 431.09945679 C513.408255 431.81488647 512.67348938 432.53031616 511.91645813 433.26742554 C511.3260675 433.89004272 510.73567688 434.51265991 510.12739563 435.15414429 C505.93122515 439.26713077 501.16960777 441.92848721 495.97895813 444.57992554 C494.99463806 445.0867688 494.99463806 445.0867688 493.99043274 445.60385132 C486.10977323 449.44926269 478.37381894 450.57049413 469.67193604 450.50793457 C468.34345566 450.51049784 468.34345566 450.51049784 466.9881373 450.5131129 C464.04480755 450.51638561 461.10170995 450.50544092 458.15840149 450.49447632 C456.03887436 450.49391172 453.91934685 450.49422971 451.79981995 450.49536133 C446.06289806 450.49593396 440.32606022 450.48419411 434.58915782 450.47021341 C428.58738684 450.45769114 422.58561382 450.45653437 416.58383179 450.4541626 C405.22621227 450.44795224 393.86863136 450.43154739 382.51102883 450.41146362 C369.57757702 450.38909083 356.64412335 450.37810771 343.710657 450.36807275 C317.11256439 450.34718079 290.51452469 450.31051006 263.91645813 450.26742554 C263.91645813 468.74742554 263.91645813 487.22742554 263.91645813 506.26742554 C274.76585266 506.19781616 274.76585266 506.19781616 285.83442688 506.12680054 C290.41451934 506.10636425 294.99455565 506.0871086 299.57466125 506.07211304 C306.84569461 506.0481945 314.11652664 506.01988792 321.3874054 505.96566772 C327.24885579 505.92223104 333.11009031 505.8982927 338.97168922 505.88791656 C341.20883394 505.88052135 343.44596674 505.86608038 345.68301964 505.84450531 C348.8147225 505.81550097 351.94553141 505.81146839 355.0773468 505.81332397 C356.00379501 505.79894287 356.93024323 505.78456177 357.88476562 505.76974487 C362.10313913 505.79682006 364.3232724 505.89757227 367.97622681 508.17520142 C370.52526201 510.92392156 370.92841694 512.59173234 371.19380188 516.23226929 C370.68426091 519.97129525 368.59682581 521.71172612 365.91645813 524.26742554 C363.54627758 525.45251581 362.11502219 525.3968882 359.47043228 525.40443993 C358.52963357 525.40951447 357.58883486 525.41458901 356.6195271 525.41981733 C355.57888946 525.42031509 354.53825182 525.42081284 353.46607971 525.42132568 C352.36604512 525.42570794 351.26601053 525.43009019 350.13264155 525.43460524 C346.42158135 525.4480322 342.7105449 525.45418083 338.99946594 525.46029663 C336.3488395 525.46819448 333.69821615 525.47645786 331.04759216 525.4850769 C323.07503291 525.50961279 315.10246738 525.52422978 307.12988198 525.53713697 C304.87868371 525.54084803 302.62748606 525.54482134 300.37628841 525.54888964 C286.40159277 525.57412524 272.42689617 525.59618196 258.45218277 525.60861778 C255.21436306 525.61154756 251.97654339 525.61450921 248.73872375 525.61752319 C247.93396263 525.61826924 247.12920151 525.61901529 246.30005369 525.61978395 C233.26118369 525.63243963 220.22244999 525.66566477 207.18364373 525.70732503 C193.80194367 525.74973094 180.42031341 525.77331125 167.03854632 525.77853835 C159.52314023 525.781954 152.00794714 525.79372712 144.49260712 525.82664108 C138.0925368 525.85462442 131.69272312 525.86564862 125.29259637 525.85444562 C122.02687439 525.84925434 118.76180336 525.85489416 115.49613571 525.87691116 C111.95522881 525.89948765 108.41568351 525.89135961 104.87477112 525.87542725 C103.84305637 525.88930933 102.81134161 525.90319142 101.74836278 525.91749418 C97.18131238 525.8667361 93.93763241 525.7895727 90.29406357 522.85442543 C87.75398471 520.09064316 87.03926932 519.16804096 86.54145813 515.51742554 C86.94454251 512.0240276 87.87874645 510.16556161 90.20155907 507.53470993 C93.67894569 504.96497397 97.78174297 505.49138617 101.93916321 505.58627319 C102.94451111 505.58539703 103.94985901 505.58452087 104.985672 505.58361816 C108.30323936 505.58779286 111.61877598 505.63444199 114.93598938 505.68148804 C117.23811743 505.69268053 119.54025978 505.70122046 121.84240723 505.70721436 C127.8975632 505.73010808 133.95185373 505.78903767 140.00666809 505.85543823 C147.2735938 505.92764754 154.54080912 505.95516404 161.80799103 505.99015808 C172.84474838 506.04831488 183.87960736 506.16328611 194.91645813 506.26742554 C194.91645813 487.78742554 194.91645813 469.30742554 194.91645813 450.26742554 C185.21936462 450.30670166 185.21936462 450.30670166 175.32637024 450.34677124 C153.95259929 450.42966799 132.57882197 450.48512363 111.20493221 450.5264864 C98.24760664 450.55222977 85.29043374 450.58730643 72.33320618 450.6446228 C61.03510433 450.69457605 49.73711309 450.72674463 38.43890387 450.73786801 C32.46070598 450.74436653 26.48282446 450.75955937 20.50472832 450.79607582 C14.86829707 450.8302236 9.23231001 450.84044068 3.59578514 450.83296394 C1.53637522 450.83433012 -0.52305085 450.8441497 -2.58237076 450.86345291 C-22.94802713 451.0448543 -38.14870898 446.92152151 -53.39604187 432.45492554 C-67.64633447 417.54129669 -72.59784383 400.08937852 -72.4197998 379.82572937 C-72.41840594 378.41508034 -72.41833951 377.00442949 -72.41946906 375.59378022 C-72.41873492 371.75439683 -72.39928901 367.91531075 -72.37651384 364.07600343 C-72.35520624 359.92128677 -72.35153439 355.76654773 -72.3455658 351.61178589 C-72.33110963 343.48805294 -72.3004584 335.36445931 -72.26411245 327.24079791 C-72.22229425 317.77232385 -72.19606596 308.30382539 -72.17028614 298.83529641 C-72.12369456 281.93851194 -72.06213163 265.04181476 -71.99247742 248.14511108 C-71.92495025 231.76297257 -71.86935758 215.38084841 -71.82646179 198.99862671 C-71.77967877 181.13899842 -71.72675906 163.27940952 -71.66276282 145.41983384 C-71.6559392 143.5145764 -71.64911623 141.60931895 -71.64229393 139.70406151 C-71.63892628 138.76674187 -71.63555863 137.82942223 -71.63208893 136.86369896 C-71.60875569 130.26886906 -71.5895896 123.67403456 -71.57189369 117.07918739 C-71.55012857 109.04103982 -71.52107827 101.00295596 -71.48291443 92.96486894 C-71.46361019 88.8664214 -71.44738018 84.76802575 -71.43970299 80.6695385 C-71.43256625 76.91371864 -71.41624639 73.1580519 -71.3927693 69.40229966 C-71.38261451 67.40911017 -71.38203652 65.41587887 -71.38186389 63.42266351 C-71.25545866 47.1432517 -67.07156361 34.2425192 -57.08354187 21.26742554 C-56.34104187 20.23617554 -55.59854187 19.20492554 -54.83354187 18.14242554 C-39.13123567 1.72637814 -21.34460208 -0.03667561 0 0 Z M-43.81010437 34.43148804 C-51.21682073 45.10988279 -52.53059311 56.74539572 -52.47122192 69.46188354 C-52.47540255 70.87009876 -52.48088405 72.2783106 -52.48754174 73.68651628 C-52.50191923 77.52843147 -52.49777595 81.37013073 -52.49037492 85.21205735 C-52.48562645 89.36618927 -52.49816779 93.5202756 -52.50839233 97.6743927 C-52.52555202 105.80136013 -52.52642635 113.92825014 -52.52117943 122.05523098 C-52.51713174 128.66243388 -52.51858839 135.26961397 -52.52392769 141.8768158 C-52.52467611 142.81854764 -52.52542453 143.76027948 -52.52619563 144.73054865 C-52.52772717 146.64388574 -52.52926551 148.55722282 -52.5308106 150.4705599 C-52.54452503 168.39593405 -52.53910506 186.3212645 -52.52762539 204.24663764 C-52.51769088 220.63442836 -52.53063934 237.0221062 -52.55455958 253.40987951 C-52.57895875 270.25312744 -52.58855664 287.09632282 -52.58190686 303.93958807 C-52.57841687 313.38935982 -52.5806323 322.83904474 -52.59815788 332.2888031 C-52.61288993 340.33173714 -52.61350202 348.37452319 -52.59608697 356.41745436 C-52.58758347 360.51812582 -52.58541147 364.61853302 -52.60073853 368.7191906 C-52.61461482 372.47832574 -52.60978526 376.23697094 -52.59049929 379.99607795 C-52.58498082 381.98865356 -52.59898607 383.98125429 -52.61385339 385.97378206 C-52.50884806 398.84448029 -48.61780763 409.14974319 -39.89604187 418.65023804 C-29.3538294 428.88834823 -17.75992201 431.43216221 -3.54263687 431.3988533 C-2.71645166 431.40090594 -1.89026646 431.40295857 -1.03904533 431.4050734 C1.72337969 431.41071808 4.48575445 431.4092893 7.2481842 431.40786743 C9.25118989 431.41045251 11.25419506 431.41346607 13.25719953 431.41687083 C18.75712482 431.4249271 24.25703705 431.42672964 29.75696754 431.4274683 C35.69031244 431.4293212 41.62365059 431.43686965 47.55699158 431.44360352 C61.20410309 431.45788427 74.8512136 431.46371166 88.49833103 431.46829546 C95.24509702 431.47063345 101.99186215 431.47423629 108.73862748 431.47799084 C131.84286973 431.49082321 154.94711153 431.50154346 178.05135727 431.50499344 C179.50081116 431.50521507 180.95026506 431.50543685 182.39971896 431.50565879 C183.8526224 431.50587943 185.30552584 431.50609991 186.75842929 431.50632024 C189.67308474 431.50676278 192.58774018 431.5072099 195.50239563 431.50765991 C196.58638765 431.507824 196.58638765 431.507824 197.69227851 431.5079914 C221.1268304 431.51162238 244.56135137 431.52754558 267.99589142 431.55085028 C292.78484354 431.57545674 317.57377798 431.58916662 342.36274266 431.59036136 C345.08482314 431.59053281 347.8069036 431.59074823 350.52898407 431.59099579 C351.19921412 431.59105156 351.86944418 431.59110733 352.55998424 431.59116478 C362.66900265 431.59224326 372.77799238 431.60154356 382.88700104 431.61518097 C394.38770416 431.63058022 405.88835424 431.63570335 417.38906571 431.62744287 C423.25581987 431.62353602 429.1224672 431.62446787 434.98920822 431.63850021 C440.36320755 431.65123642 445.73701974 431.65004393 451.11101881 431.6379095 C453.05176275 431.63595206 454.99251994 431.63903308 456.93324527 431.64775386 C472.34829828 431.71261931 486.44547847 431.02732526 498.36177063 420.00570679 C509.84133316 407.93890591 512.22527958 395.71761672 512.17715454 379.51675415 C512.18017909 378.13231665 512.18407009 376.74788081 512.18874711 375.3634479 C512.198997 371.57792216 512.19685298 367.79249144 512.19256651 364.00695801 C512.19009377 359.91683948 512.19912033 355.8267435 512.206604 351.7366333 C512.2193384 343.73038774 512.22114622 335.72417574 512.21880374 327.71792176 C512.21701879 321.20746966 512.21877403 314.69702773 512.22302818 308.18657684 C512.22362337 307.25902827 512.22421856 306.3314797 512.22483179 305.3758236 C512.22604358 303.49131991 512.22725771 301.60681623 512.22847416 299.72231254 C512.23934513 282.05775599 512.23718948 264.39321854 512.23108932 246.72866091 C512.22592219 230.58460824 512.237171 214.44061595 512.25618754 198.29657522 C512.27558166 181.70424973 512.28381907 165.11195278 512.28006428 148.51961589 C512.27815442 139.21061005 512.28061873 129.90165557 512.29477882 120.592659 C512.30671376 112.66650367 512.30807396 104.74043133 512.29598866 96.81427482 C512.2901144 92.77416622 512.28896003 88.73420922 512.30099106 84.69411087 C512.31189899 80.98791274 512.30868879 77.2819919 512.29472937 73.57580647 C512.29085852 71.61642873 512.30158939 69.65703844 512.31302625 67.69769025 C512.22678243 53.44741881 509.49825691 41.24725489 499.72895813 30.51742554 C491.79433054 23.04328972 483.2487527 20.11223675 472.60948658 20.13599777 C471.33526268 20.13291882 471.33526268 20.13291882 470.03529689 20.12977767 C467.16956382 20.12409287 464.3038786 20.12556675 461.43814087 20.12698364 C459.37045253 20.12440086 457.3027647 20.12138794 455.23507756 20.11798024 C449.53789794 20.10989683 443.8407309 20.10811992 438.14354622 20.10738277 C432.00500596 20.10553455 425.86647227 20.09798838 419.72793579 20.09124756 C405.59773763 20.07694515 391.46754362 20.07113645 377.33733996 20.06655561 C370.35531982 20.06422003 363.37330049 20.06061742 356.39128099 20.05686024 C332.49293002 20.04402442 308.59457951 20.03330525 284.69622517 20.02985764 C283.19588546 20.029636 281.69554576 20.02941422 280.19520606 20.02919228 C278.69123398 20.02897164 277.1872619 20.02875116 275.68328983 20.02853084 C272.66604189 20.02808828 269.64879396 20.02764117 266.63154602 20.02719116 C265.88344337 20.02708177 265.13534071 20.02697238 264.36456828 20.02685967 C240.10628638 20.02322889 215.84803436 20.00730819 191.58976391 19.9840008 C165.94487987 19.95940617 140.30001291 19.94568497 114.65511674 19.94448972 C111.84006671 19.94431826 109.02501668 19.94410283 106.20996666 19.94385529 C105.51681793 19.94379952 104.82366919 19.94374375 104.10951595 19.94368629 C92.95350199 19.94253552 81.79751869 19.93151134 70.64151508 19.91696823 C59.42856139 19.90260363 48.21564646 19.8996186 37.00268254 19.90740821 C30.92772683 19.9113207 24.8528743 19.91035581 18.77793121 19.89635086 C13.21703854 19.88364807 7.65632698 19.88477766 2.09543469 19.89694157 C0.08329266 19.89890485 -1.92886204 19.89579115 -3.94098624 19.88709721 C-6.67666542 19.87602498 -9.41170318 19.88347919 -12.14736462 19.89548874 C-12.92795952 19.88789355 -13.70855441 19.88029835 -14.5128037 19.872473 C-26.15938284 19.98279598 -36.58448894 25.2896873 -43.81010437 34.43148804 Z " fill="#F3F4F4" transform="translate(278.0835418701172,221.73257446289063)"/>
<path d="M0 0 C1.53010712 -0.00935994 1.53010712 -0.00935994 3.09112549 -0.01890898 C6.51419084 -0.03488165 9.93654832 -0.0222172 13.35961914 -0.00964355 C15.81214311 -0.01506302 18.26466382 -0.02218468 20.71717834 -0.03088379 C26.692034 -0.04725029 32.66661133 -0.04482499 38.64145619 -0.03323323 C43.50203573 -0.02419474 48.362559 -0.02297671 53.22314453 -0.02732849 C53.91532936 -0.02794142 54.60751418 -0.02855436 55.3206743 -0.02918586 C56.72699914 -0.03046481 58.13332396 -0.03176166 59.53964877 -0.03307623 C72.73144528 -0.04448553 85.92313066 -0.0313664 99.11490893 -0.00987476 C110.41414555 0.00796492 121.71321759 0.00491873 133.01245117 -0.0135498 C146.14506328 -0.03500507 159.27757769 -0.04335357 172.41020489 -0.03110075 C173.81376329 -0.02982663 175.2173217 -0.02856915 176.62088013 -0.02732849 C177.65661135 -0.02640284 177.65661135 -0.02640284 178.71326643 -0.02545848 C183.55934639 -0.02201714 188.40536402 -0.02780824 193.25143433 -0.0372467 C199.79157416 -0.04970469 206.33145347 -0.0407042 212.87158012 -0.01766968 C215.2656039 -0.01240276 217.65965389 -0.01386155 220.05366707 -0.02272034 C240.87728891 -0.09263892 254.63436572 2.14829009 269.9453125 17.35559082 C271.63066177 19.05619321 273.30308611 20.76865155 274.97290039 22.48449707 C277.19251261 24.7580102 279.46222762 26.89752042 281.89477539 28.94543457 C286.46397494 32.81615776 290.59634085 37.11919493 294.80224609 41.37463379 C298.49573693 45.09562456 302.24430595 48.66091655 306.30883789 51.98059082 C313.84697366 58.96497728 316.8198751 68.08001423 317.40285683 78.10926437 C317.63707423 85.06402788 317.57651058 92.01687428 317.52490234 98.97424316 C317.52349024 101.64625064 317.52406747 104.31818948 317.52711487 106.9901886 C317.5297227 112.71899567 317.51418241 118.4475156 317.48592567 124.17625046 C317.44509946 132.45874571 317.43224904 140.74110367 317.42598572 149.02368863 C317.41507233 162.46513034 317.38187887 175.90641938 317.33447266 189.34777832 C317.2885002 202.39627322 317.25314604 215.44472648 317.23193359 228.49328613 C317.23061998 229.29908381 317.22930636 230.10488148 317.22795293 230.93509726 C317.22142723 234.97799143 317.21510881 239.02088589 317.20889342 243.06378055 C317.15715257 276.54527695 317.06879384 310.02658441 316.95727539 343.50793457 C310.68727539 343.50793457 304.41727539 343.50793457 297.95727539 343.50793457 C297.95231017 341.47950078 297.95231017 341.47950078 297.94724464 339.41008854 C297.86819782 307.29715687 297.77896684 275.18427072 297.67722378 243.07140318 C297.66470517 239.11738588 297.65227235 235.16336832 297.63989258 231.20935059 C297.63619359 230.02860833 297.63619359 230.02860833 297.63241987 228.82401269 C297.59271472 216.08458065 297.55995745 203.34513977 297.52977557 190.60568202 C297.49864274 177.53023853 297.46002551 164.45483252 297.41448534 151.37943119 C297.38662815 143.31361884 297.36458312 135.24783386 297.35001288 127.18198638 C297.33820755 120.9932453 297.31598043 114.80458121 297.2898922 108.61588478 C297.28082683 106.07989739 297.27512862 103.54389536 297.27306175 101.00789261 C297.26973195 97.5427208 297.25423451 94.07780554 297.23574829 90.61268616 C297.23865039 89.11119399 297.23865039 89.11119399 297.24161112 87.57936865 C297.16729693 78.24680041 296.35211443 70.07458377 289.57739258 63.08410645 C288.02696833 61.6031944 286.43998566 60.17636327 284.83227539 58.75793457 C283.66792195 57.7089188 282.50517961 56.65811223 281.34399414 55.60559082 C280.77084473 55.08625977 280.19769531 54.56692871 279.60717773 54.03186035 C277.21512562 51.82245086 274.92924719 49.51532454 272.64477539 47.19543457 C269.19474396 43.70081468 265.6436877 40.42926215 261.91040039 37.24230957 C259.0096282 34.66642387 256.32014736 31.89432437 253.62133789 29.10949707 C252.03304806 27.42164733 252.03304806 27.42164733 249.95727539 26.50793457 C247.17740216 56.45133696 247.17740216 56.45133696 257.70727539 82.88293457 C259.49441736 84.68028082 261.31875844 86.36424785 263.24829102 88.00695801 C266.64380314 90.9891878 269.69199216 94.03760402 270.19218445 98.69541931 C270.07876825 104.7820887 269.64362618 110.76812214 268.96118164 116.81652832 C268.85252274 117.82050156 268.74386383 118.82447479 268.63191223 119.85887146 C268.26664617 123.22167945 267.89356506 126.58356401 267.51977539 129.94543457 C267.1153929 133.61786455 266.71221198 137.29042493 266.30926514 140.9630127 C266.0148729 143.64570384 265.71980957 146.32831498 265.4241333 149.01086426 C264.33786458 158.89150879 263.30043973 168.77674269 262.279953 178.66438293 C261.5991616 185.25928902 260.90798151 191.85309612 260.21463108 198.44669247 C259.72372597 203.12083556 259.23801802 207.79540023 258.76394653 212.47128296 C258.31205257 216.92631562 257.84617253 221.37967942 257.37033653 225.83221626 C257.19646858 227.48247111 257.02761329 229.13326325 256.86423683 230.78458977 C255.78378703 241.66965499 254.60060154 252.04283896 247.08227539 260.57043457 C246.3049707 261.47535645 245.52766602 262.38027832 244.72680664 263.31262207 C244.07639404 264.05850586 244.07639404 264.05850586 243.4128418 264.81945801 C240.473469 268.22916989 237.63070548 271.71993712 234.76977539 275.19543457 C233.89699951 276.24646362 233.89699951 276.24646362 233.0065918 277.31872559 C223.79480482 287.25655879 223.79480482 287.25655879 219.63842773 299.34655762 C219.61855804 300.32734787 219.59868835 301.30813812 219.57821655 302.31864929 C219.56666534 303.37498062 219.55511414 304.43131195 219.54321289 305.51965332 C219.52384674 306.60301468 219.50448059 307.68637604 219.48452759 308.80256653 C219.42469195 312.2667755 219.37833009 315.73101762 219.33227539 319.19543457 C219.29409932 321.54245436 219.25504781 323.88946009 219.21508789 326.2364502 C219.11898697 331.99349758 219.03497037 337.75061055 218.95727539 343.50793457 C212.35727539 343.50793457 205.75727539 343.50793457 198.95727539 343.50793457 C198.95727539 333.27793457 198.95727539 323.04793457 198.95727539 312.50793457 C127.01727539 312.50793457 55.07727539 312.50793457 -19.04272461 312.50793457 C-19.04272461 322.73793457 -19.04272461 332.96793457 -19.04272461 343.50793457 C-25.31272461 343.50793457 -31.58272461 343.50793457 -38.04272461 343.50793457 C-38.15613218 335.07529628 -38.24767209 326.64326066 -38.30178547 318.21006203 C-38.3277702 314.29327462 -38.36296065 310.37704041 -38.41992188 306.46057129 C-38.47464446 302.6738995 -38.50422859 298.88775644 -38.51711082 295.10071945 C-38.52627929 293.66311709 -38.54418182 292.22554044 -38.57137489 290.78816605 C-38.81948739 277.11739884 -34.76748919 269.08263747 -26.29272461 258.63293457 C-25.05150618 257.06288528 -23.81062115 255.49257236 -22.57006836 253.92199707 C-20.90826849 251.83728273 -19.24309359 249.75569483 -17.56665039 247.68273926 C-16.31720224 246.13432092 -15.08554563 244.5715938 -13.85522461 243.00793457 C-13.18104492 242.17262207 -12.50686523 241.33730957 -11.81225586 240.47668457 C-6.89444565 232.22605375 -5.82872137 221.94687506 -4.08178711 212.64074707 C-3.80700431 211.1974613 -3.53179739 209.75425622 -3.25619507 208.31112671 C-2.67988301 205.28764572 -2.10697986 202.26354722 -1.53686523 199.2388916 C-0.82329978 195.45330023 -0.10398889 191.66883372 0.61762619 187.88476944 C3.62760613 172.09670765 6.57846983 156.30072359 9.34091187 140.4671936 C10.39945079 134.43916707 11.57952258 128.47134785 12.95727539 122.50793457 C14.00326627 117.89365835 14.33192246 113.95611554 11.93188477 109.6817627 C9.074705 105.42812026 5.8332698 101.48449533 2.58227539 97.52893066 C0.1089182 94.4528413 -2.1551955 91.24056178 -4.41772461 88.00793457 C-5.16795898 86.94574707 -5.91819336 85.88355957 -6.69116211 84.78918457 C-7.06213516 84.24783875 -7.43310822 83.70649292 -7.81532288 83.14874268 C-9.01547118 81.46338586 -9.01547118 81.46338586 -10.55809021 79.99066162 C-16.55898143 73.53361503 -15.89905249 66.05960075 -15.80444336 57.77355957 C-15.80594774 56.24757589 -15.80938258 54.721593 -15.81465149 53.19561768 C-15.81896623 50.01140524 -15.80226588 46.82821156 -15.77001953 43.64416504 C-15.73010228 39.56596977 -15.73960108 35.4896685 -15.76425457 31.41141129 C-15.7784383 28.26628092 -15.7683532 25.12159287 -15.75074196 21.97649384 C-15.74490116 20.47262376 -15.74618128 18.96870829 -15.75476646 17.46485138 C-15.7627675 15.36523203 -15.73850808 13.268391 -15.70556641 11.16906738 C-15.69857224 9.97630188 -15.69157806 8.78353638 -15.68437195 7.55462646 C-15.04272461 4.50793457 -15.04272461 4.50793457 -13.13029194 2.34926224 C-8.73513323 -0.27187164 -5.030209 -0.04708787 0 0 Z M15.95727539 80.50793457 C17.8068835 84.35880926 20.15005905 87.74034622 22.64477539 91.19543457 C23.25869141 92.05685059 23.25869141 92.05685059 23.88500977 92.93566895 C24.30459961 93.52025879 24.72418945 94.10484863 25.15649414 94.70715332 C25.58913574 95.32179443 26.02177734 95.93643555 26.4675293 96.56970215 C27.95522115 98.58587841 27.95522115 98.58587841 29.91186523 100.49890137 C32.9339427 103.73302186 34.87275946 105.99802268 35.12597656 110.52185059 C34.69218312 114.06760621 34.008242 117.46421226 33.20727539 120.94543457 C32.81221715 122.9050167 32.41717605 124.86460273 32.02372742 126.82450867 C31.61809874 128.80935777 31.19346051 130.78919626 30.76245117 132.76867676 C29.84433148 137.03244908 29.01754995 141.30843587 28.20800781 145.59387207 C27.62114355 148.6953238 27.01557995 151.79282063 26.41040039 154.89074707 C25.2309177 161.00276554 24.11056164 167.12448224 23.00415039 173.25012207 C22.7446032 174.68614021 22.7446032 174.68614021 22.47981262 176.15116882 C21.61556512 180.93806368 20.75524568 185.72563181 19.89941406 190.51403809 C18.1815404 200.0756616 16.38011529 209.60290373 14.26707458 219.08628845 C13.31410404 223.44478256 12.62752473 227.75117079 12.18273926 232.19142151 C11.03272009 242.41325202 6.17508012 248.85665472 -0.36694336 256.53625488 C-2.60724789 259.17213766 -4.76857711 261.8674663 -6.92773438 264.56994629 C-7.92524833 265.81515242 -8.93035538 267.05433435 -9.94482422 268.2857666 C-11.34614436 270.00159932 -12.69705177 271.74824614 -14.04272461 273.50793457 C-14.52370605 274.0880127 -15.0046875 274.66809082 -15.50024414 275.26574707 C-20.55461684 282.05461999 -19.04272461 284.70242634 -19.04272461 294.50793457 C53.22727539 294.50793457 125.49727539 294.50793457 199.95727539 294.50793457 C201.60727539 290.54793457 203.25727539 286.58793457 204.95727539 282.50793457 C207.54940296 279.00856235 210.11256786 275.77522547 212.95727539 272.50793457 C215.13732748 269.86421468 217.29881713 267.20688454 219.44946289 264.53918457 C221.28907525 262.31560328 223.15344762 260.17406361 225.09008789 258.03918457 C226.17106723 256.79981939 227.25179844 255.56023775 228.33227539 254.32043457 C228.84435547 253.78200928 229.35643555 253.24358398 229.8840332 252.68884277 C235.27431365 246.37484639 235.8940374 238.4558538 236.95727539 230.50793457 C237.05661377 229.77261505 237.15595215 229.03729553 237.25830078 228.2796936 C238.01000256 222.57286961 238.64537302 216.85484949 239.26977539 211.13293457 C239.47890379 209.25757972 239.68830323 207.38225507 239.89794922 205.50695801 C242.01360294 186.45275365 243.96592256 167.38043029 245.90185547 148.30725098 C248.85617509 119.27510214 248.85617509 119.27510214 250.45117188 109.47253418 C251.18794983 104.5869553 250.26135311 101.66519945 247.41821289 97.71105957 C244.91546466 94.4850257 242.26756927 91.4045286 239.51293945 88.39147949 C237.95727539 86.50793457 237.95727539 86.50793457 236.40736771 83.43530846 C234.15813049 80.11946673 234.15813049 80.11946673 230.06049728 79.7696476 C228.44056295 79.74442788 226.81991148 79.75256841 225.20013428 79.78640747 C224.30650216 79.78128092 223.41287005 79.77615437 222.49215817 79.77087247 C219.49119453 79.76097204 216.49223391 79.79401617 213.49145508 79.82678223 C211.34310961 79.82847427 209.19476068 79.82752545 207.04641724 79.8241272 C201.20769471 79.82240245 195.36970855 79.85773085 189.53115749 79.89957094 C183.43196258 79.93702468 177.33275164 79.94059909 171.23345947 79.94772339 C159.68074096 79.96638793 148.12836224 80.01564704 136.5757935 80.07582033 C123.42485022 80.14283518 110.27389089 80.17586188 97.12281942 80.20599294 C70.06744953 80.26874441 43.01238148 80.37431097 15.95727539 80.50793457 Z " fill="#F3F4F4" transform="translate(303.042724609375,285.4920654296875)"/>
<path d="M0 0 C74.91 0 149.82 0 227 0 C227 13.53 227 27.06 227 41 C152.09 41 77.18 41 0 41 C0 27.47 0 13.94 0 0 Z " fill="#061E3E" transform="translate(307,306)"/>
<path d="M0 0 C1.27418289 -0.00525696 2.54836578 -0.01051392 3.86116028 -0.01593018 C7.33647482 -0.02953647 10.81152037 -0.02433271 14.28683925 -0.01479292 C17.93680302 -0.00715978 21.58674485 -0.01425218 25.23670959 -0.01895142 C31.36553043 -0.02439908 37.49424257 -0.01724417 43.62304688 -0.00292969 C50.69064267 0.01338769 57.75797866 0.00811107 64.82556814 -0.0084089 C70.91161717 -0.02206081 76.99758838 -0.02392518 83.08364779 -0.0160929 C86.71064891 -0.01143572 90.33752829 -0.0107371 93.96452141 -0.02070236 C98.0116581 -0.03104648 102.05835318 -0.01667445 106.10546875 0 C107.29484039 -0.00607269 108.48421204 -0.01214539 109.70962524 -0.0184021 C117.61201053 0.041743 125.80015249 0.6544737 131.99243164 6.13818359 C132.52610352 6.58677734 133.05977539 7.03537109 133.60961914 7.49755859 C137.5120457 12.39075666 138.52646838 16.62648998 137.8737793 22.68945312 C137.76855957 23.47690918 137.66333984 24.26436523 137.55493164 25.07568359 C137.40483643 26.35741455 137.40483643 26.35741455 137.25170898 27.66503906 C136.89966883 30.57671527 136.51272954 33.48207204 136.11743164 36.38818359 C135.97354004 37.4592334 135.82964844 38.5302832 135.68139648 39.63378906 C134.55924056 47.89519895 133.34951216 56.14254916 132.11743164 64.38818359 C131.94421387 65.55913574 131.77099609 66.73008789 131.5925293 67.93652344 C130.61932249 74.50131241 129.61608552 81.06010918 128.5612793 87.61230469 C128.28284464 89.35366993 128.01070647 91.09606613 127.74780273 92.83984375 C126.51435519 100.97060141 125.13455941 107.43927723 119.11743164 113.38818359 C118.51801758 114.01208984 117.91860352 114.63599609 117.30102539 115.27880859 C108.90707545 123.35056652 99.09639978 125.55423481 87.74707031 125.50170898 C86.91728668 125.50185501 86.08750305 125.50200104 85.23257446 125.50215149 C82.50015617 125.50145692 79.76780673 125.49368588 77.03540039 125.48583984 C75.13682594 125.48397405 73.23825101 125.48255091 71.3396759 125.48155212 C66.3502163 125.4777397 61.36078596 125.46792029 56.37133789 125.45684814 C51.27694087 125.44660662 46.18253912 125.44204863 41.08813477 125.43701172 C31.09788549 125.42629687 21.10766558 125.40871039 11.11743164 125.38818359 C11.11743164 119.44818359 11.11743164 113.50818359 11.11743164 107.38818359 C13.5846167 107.37883789 16.05180176 107.36949219 18.59375 107.35986328 C26.7682139 107.32601438 34.94242746 107.27042154 43.11669064 107.20428085 C48.070157 107.16486253 53.0234471 107.1326464 57.97705078 107.1171875 C62.76241089 107.1019837 67.54728622 107.06747224 72.33242989 107.01987457 C74.15311011 107.0050991 75.97385956 106.99714479 77.79459953 106.99629974 C91.15836644 107.4632927 91.15836644 107.4632927 103.11743164 102.38818359 C106.21502678 99.12679716 106.73828202 96.1963797 107.37597656 91.80297852 C107.47395035 91.15039566 107.57192413 90.49781281 107.67286682 89.82545471 C107.9927123 87.67469994 108.29556228 85.52193221 108.59790039 83.36865234 C108.81692788 81.86643226 109.03685642 80.36434329 109.25764465 78.86238098 C109.71776675 75.71532481 110.17003543 72.56727608 110.61621094 69.41821289 C111.1864123 65.39513111 111.77121327 61.37435185 112.36135387 57.35415173 C112.81594102 54.25169005 113.26510571 51.14846355 113.71242714 48.04494667 C113.92622719 46.56292193 114.1411251 45.08105512 114.3571682 43.5993557 C114.65891526 41.52078688 114.95394059 39.44137166 115.24707031 37.36157227 C115.41567062 36.18116867 115.58427094 35.00076508 115.75798035 33.78459167 C116.79118684 27.46717648 116.79118684 27.46717648 114.91697788 21.70918465 C112.52643677 19.95434932 111.03587863 20.00843108 108.08279419 20.00050354 C107.04254089 19.99059891 106.0022876 19.98069427 104.93051147 19.9704895 C103.78966095 19.97499115 102.64881042 19.9794928 101.47338867 19.98413086 C99.67061462 19.97383598 99.67061462 19.97383598 97.8314209 19.96333313 C94.53365697 19.94815071 91.23645746 19.94657601 87.9387002 19.95227551 C85.18525773 19.95536372 82.43186656 19.94927886 79.67843139 19.94323677 C73.18132958 19.92918217 66.68435922 19.93075978 60.18725586 19.94213867 C53.48714248 19.95361392 46.78742966 19.93955674 40.08736908 19.9127422 C34.33353391 19.89057772 28.57982438 19.88394967 22.82594955 19.88981861 C19.39009571 19.89318851 15.95449848 19.89077168 12.51868057 19.87356758 C8.68571561 19.85521339 4.85324202 19.86929333 1.02026367 19.88647461 C-0.11653839 19.87680664 -1.25334045 19.86713867 -2.42459106 19.85717773 C-8.52012309 19.89760738 -8.52012309 19.89760738 -14.06332397 22.19906616 C-16.60367028 25.25589373 -16.99807806 28.28313451 -17.42944336 32.11083984 C-17.53097717 32.85273056 -17.63251099 33.59462128 -17.73712158 34.35899353 C-18.05614445 36.72071022 -18.34512531 39.08493585 -18.63256836 41.45068359 C-18.94081179 43.81877216 -19.25508516 46.18599074 -19.57086182 48.55308533 C-19.7647856 50.02365404 -19.95311041 51.4949745 -20.13519287 52.96705627 C-20.50564134 55.91496775 -20.93979822 58.55987318 -21.88256836 61.38818359 C-28.48256836 61.38818359 -35.08256836 61.38818359 -41.88256836 61.38818359 C-41.28986363 52.39564188 -40.37026732 43.50855722 -39.00048828 34.60229492 C-38.79574905 33.24374946 -38.60118784 31.88363362 -38.41650391 30.5222168 C-37.08939511 20.75707298 -35.17305466 14.01508656 -27.60913086 7.39990234 C-26.56885742 6.74441406 -26.56885742 6.74441406 -25.50756836 6.07568359 C-24.81920898 5.62580078 -24.13084961 5.17591797 -23.42163086 4.71240234 C-15.40601439 0.53195006 -8.95769565 -0.04565849 0 0 Z " fill="#F5F6F6" transform="translate(393.882568359375,391.61181640625)"/>
<path d="M0 0 C6.55812505 5.36573868 11.21888621 11.07459114 12.1015625 19.67578125 C12.47428919 29.43533533 11.27701655 36.3218554 4.58984375 43.6015625 C0.47810904 47.48677426 -1.5366841 49.10733682 -7.25 50.25 C-7.25 57.18 -7.25 64.11 -7.25 71.25 C-5.39375 71.1675 -3.5375 71.085 -1.625 71 C3.92569956 70.98689327 6.67320558 71.50375648 10.75 75.25 C12.32898053 78.40796107 12.56928171 81.85670636 11.75 85.25 C9.70690872 88.04236491 8.06792422 89.9611745 4.59262085 90.72279358 C1.91456423 90.91227637 -0.72157526 90.94288218 -3.40625 90.9140625 C-4.87608337 90.92123795 -4.87608337 90.92123795 -6.37561035 90.92855835 C-8.44329436 90.93195441 -10.51103228 90.92277263 -12.57861328 90.90185547 C-15.73982702 90.87508615 -18.89749018 90.90161371 -22.05859375 90.93359375 C-24.07032032 90.9302896 -26.08204469 90.92388326 -28.09375 90.9140625 C-29.03657837 90.92418365 -29.97940674 90.93430481 -30.95080566 90.94473267 C-35.56897415 90.8624344 -37.59986787 90.75707227 -41.34326172 87.83740234 C-43.72086713 84.61104355 -44.02249244 83.0610699 -43.70703125 79.1875 C-43.25 77.25 -43.25 77.25 -41.5625 74.25 C-36.38431643 71.12354954 -31.15006783 71.86126932 -25.25 72.25 C-25.18537384 68.85218966 -25.20973334 65.46055899 -25.25 62.0625 C-25.23066406 61.10279297 -25.21132813 60.14308594 -25.19140625 59.15429688 C-25.18286056 53.8419644 -25.18286056 53.8419644 -27.96362305 49.59472656 C-30.01329176 48.35330778 -32.09991641 47.30443396 -34.25 46.25 C-40.0078963 41.05260688 -43.80849504 35.59559937 -44.59765625 27.828125 C-44.97818839 18.10991954 -43.77391528 11.27275005 -37.1953125 3.96875 C-26.06748562 -6.65851719 -13.41296641 -7.22236653 0 0 Z " fill="#F5F5F5" transform="translate(379.25,471.75)"/>
<path d="M0 0 C1.15728607 -0.01029488 1.15728607 -0.01029488 2.33795166 -0.02079773 C4.87392878 -0.03901496 7.40928435 -0.0352361 9.9453125 -0.02954102 C11.71598511 -0.03410483 13.48665594 -0.039411 15.25732422 -0.04542542 C18.96263846 -0.0543462 22.66773704 -0.05194468 26.37304688 -0.04199219 C31.11440615 -0.03049589 35.8550214 -0.05072913 40.59628296 -0.07990932 C44.25094303 -0.09827919 47.90542497 -0.09797745 51.56011963 -0.0922718 C53.30797368 -0.09211873 55.05583991 -0.09815177 56.8036499 -0.11056328 C59.24977979 -0.12548913 61.69453723 -0.11478621 64.140625 -0.09765625 C65.21621674 -0.1121582 65.21621674 -0.1121582 66.3135376 -0.12695312 C71.33383126 -0.05356295 74.20336002 1.25003974 78.0703125 4.40405273 C79.67878432 7.62099637 79.68340399 10.92542495 79.0703125 14.40405273 C76.89456834 17.09510472 75.15965394 18.85938202 72.0703125 20.40405273 C69.56953829 20.51254425 67.0961862 20.56136258 64.59472656 20.56518555 C63.82378662 20.57015045 63.05284668 20.57511536 62.25854492 20.58023071 C59.70100011 20.59486793 57.14351737 20.60165783 54.5859375 20.60717773 C52.80954995 20.61292905 51.03316241 20.61868678 49.2567749 20.62445068 C45.52762563 20.63496589 41.79849795 20.64080477 38.06933594 20.64428711 C33.29662889 20.64976505 28.52420812 20.67377583 23.75159073 20.70225906 C20.07980525 20.72090924 16.4080883 20.72609237 12.73625946 20.72762299 C10.97723581 20.73064598 9.21821327 20.7386626 7.45923615 20.75180817 C4.9937637 20.76891437 2.52898471 20.76697716 0.06347656 20.76049805 C-0.65986877 20.76971283 -1.38321411 20.77892761 -2.128479 20.78842163 C-6.7904488 20.75015545 -9.96210309 19.84471404 -13.9296875 17.40405273 C-16.32325715 14.24889274 -16.25206518 11.27258494 -15.9296875 7.40405273 C-15.03269733 4.26458715 -14.15384249 3.54147311 -11.33935547 1.81602478 C-7.45018882 0.20548832 -4.13520802 -0.02596048 0 0 Z " fill="#F0F1F2" transform="translate(676.9296875,366.595947265625)"/>
<path d="M0 0 C1.23262825 -0.01336143 1.23262825 -0.01336143 2.49015808 -0.0269928 C5.19933103 -0.04825732 7.90612033 -0.02598057 10.61523438 -0.0012207 C12.50183352 -0.00272339 14.38843204 -0.00615408 16.27502441 -0.01142883 C20.22614647 -0.01575912 24.17645204 0.00106867 28.12744141 0.03320312 C33.18862737 0.07298448 38.24828239 0.06368398 43.30951691 0.03896809 C47.20441202 0.02477657 51.09895032 0.03487837 54.99382019 0.0524807 C56.85970711 0.05832537 58.72563061 0.05703571 60.59150696 0.04845619 C63.20115117 0.04045273 65.80856207 0.06473387 68.41796875 0.09765625 C69.18694992 0.08910614 69.95593109 0.08055603 70.74821472 0.07174683 C74.75433171 0.15885902 76.52591781 0.61321228 79.68786621 3.15715027 C82.3618982 6.60149873 82.37322754 8.47003915 82.14257812 12.6706543 C81.51668157 15.68736293 80.18707534 17.01125737 77.70898438 18.76049805 C74.61361759 20.30818144 71.34041589 19.92549362 67.94213867 19.9375 C67.14033173 19.9440712 66.33852478 19.9506424 65.51242065 19.95741272 C62.85268058 19.97716165 60.192997 19.98881178 57.53320312 19.9987793 C56.17176147 20.00489259 56.17176147 20.00489259 54.78281593 20.01112938 C49.97899222 20.03199683 45.17519714 20.04629567 40.37133789 20.05566406 C35.40788492 20.06673051 30.44488003 20.1011311 25.4815855 20.14083576 C21.66658186 20.16697331 17.85168543 20.17535334 14.03660011 20.17894554 C12.20695787 20.18381885 10.37732064 20.19545398 8.54776573 20.21398354 C5.9861533 20.23831471 3.42570613 20.23742127 0.86401367 20.23046875 C0.10902084 20.24327881 -0.64597198 20.25608887 -1.42384338 20.26928711 C-5.09664184 20.23297621 -7.12253456 19.86936476 -10.23820496 17.85612488 C-12.85568892 15.18404717 -13.23287448 14.26438796 -13.66601562 10.51049805 C-13.27947328 6.64507455 -12.46261237 4.89745338 -9.90022278 2.01509666 C-6.94611057 -0.28804068 -3.5701471 -0.06368124 0 0 Z " fill="#F5F6F6" transform="translate(674.291015625,415.239501953125)"/>
<path d="M0 0 C9.9 0 19.8 0 30 0 C30 18.48 30 36.96 30 56 C20.1 56 10.2 56 0 56 C0 37.52 0 19.04 0 0 Z " fill="#072043" transform="translate(493,672)"/>
<path d="M0 0 C1.18503113 -0.00960754 2.37006226 -0.01921509 3.59100342 -0.02911377 C4.88258362 -0.03336365 6.17416382 -0.03761353 7.50488281 -0.04199219 C8.82337219 -0.04769226 10.14186157 -0.05339233 11.50030518 -0.05926514 C14.29805895 -0.06978648 17.0957839 -0.07562101 19.89355469 -0.07910156 C23.47256308 -0.08457436 27.05118871 -0.10857096 30.63007736 -0.13707352 C33.3839426 -0.15573614 36.13771658 -0.16090751 38.89163971 -0.16243744 C40.85087997 -0.16692575 42.81007132 -0.18556014 44.76922607 -0.20440674 C46.56568573 -0.19990509 46.56568573 -0.19990509 48.3984375 -0.1953125 C49.45021179 -0.19895813 50.50198608 -0.20260376 51.58563232 -0.20635986 C54.92543734 0.2209359 56.76581616 1.16534266 59.45800781 3.16113281 C61.97051365 6.92989156 61.98816867 8.69263415 61.45800781 13.16113281 C59.88284322 16.18313241 59.23341091 17.37718061 56.45800781 19.16113281 C51.83997442 20.06155129 47.27460465 19.95342741 42.58300781 19.88769531 C41.21207685 19.88665705 39.84114288 19.88769654 38.47021484 19.89071655 C35.60175926 19.89053747 32.73443221 19.86975976 29.86621094 19.83349609 C26.19732353 19.78811828 22.53008326 19.78703569 18.86099243 19.80053139 C16.03150907 19.80722822 13.20239839 19.7939193 10.37298584 19.77427292 C8.36506225 19.76287723 6.35707509 19.76543495 4.34912109 19.76821899 C3.12435059 19.74915497 1.89958008 19.73009094 0.63769531 19.71044922 C-0.43754395 19.70123444 -1.5127832 19.69201965 -2.62060547 19.68252563 C-6.23451019 19.03753606 -7.91996396 17.68002568 -10.54199219 15.16113281 C-12.11134813 12.02242094 -11.89400322 9.62257459 -11.54199219 6.16113281 C-9.10449219 3.28613281 -9.10449219 3.28613281 -6.54199219 1.16113281 C-4.79586204 -0.58499733 -2.37417521 0.01545966 0 0 Z " fill="#F5F6F6" transform="translate(672.5419921875,461.8388671875)"/>
<path d="M0 0 C2.98940612 0.6769399 4.57596578 2.00290848 6.265625 4.55859375 C6.62785156 5.21085938 6.99007813 5.863125 7.36328125 6.53515625 C7.83894531 7.33179688 8.31460937 8.1284375 8.8046875 8.94921875 C10.87748771 12.68816626 12.32572134 15.5398187 12.48828125 19.84765625 C10.96048653 23.49738808 9.61373675 25.23275027 6.36328125 27.53515625 C3.21031165 28.24343203 0.51804283 28.23173682 -2.63671875 27.53515625 C-7.77172253 23.91731268 -11.74578385 17.51941712 -13.125 11.3515625 C-13.36620573 7.70591019 -12.68657673 5.61492901 -10.76171875 2.53515625 C-6.95968133 0.1018523 -4.45542001 -0.25742427 0 0 Z " fill="#F3F3F4" transform="translate(435.63671875,534.46484375)"/>
<path d="M0 0 C71.94 0 143.88 0 218 0 C217.67 10.23 217.34 20.46 217 31 C216.67 31 216.34 31 216 31 C216 21.43 216 11.86 216 2 C145.05 2 74.1 2 1 2 C1 11.9 1 21.8 1 32 C0.67 32 0.34 32 0 32 C0 21.44 0 10.88 0 0 Z " fill="#2D3545" transform="translate(284,598)"/>
<path d="M0 0 C2.6536457 1.93470645 4.26853989 4.23491067 6 7 C6.42539062 7.64839844 6.85078125 8.29679688 7.2890625 8.96484375 C9.30303267 12.42421428 10.31682065 15.21826975 10.0625 19.25 C9 23 9 23 7 25.5 C2.88247362 27.55876319 -0.49804128 28.16923663 -5 27 C-7.6536457 25.06529355 -9.26853989 22.76508933 -11 20 C-11.42539062 19.35160156 -11.85078125 18.70320312 -12.2890625 18.03515625 C-14.30303267 14.57578572 -15.31682065 11.78173025 -15.0625 7.75 C-14 4 -14 4 -12 1.5 C-7.88247362 -0.55876319 -4.50195872 -1.16923663 0 0 Z " fill="#F4F5F5" transform="translate(482,535)"/>
<path d="M0 0 C9.9 0 19.8 0 30 0 C30 18.48 30 36.96 30 56 C20.1 56 10.2 56 0 56 C0 37.52 0 19.04 0 0 Z M1 2 C1 19.16 1 36.32 1 54 C9.91 54 18.82 54 28 54 C28 36.84 28 19.68 28 2 C19.09 2 10.18 2 1 2 Z " fill="#222834" transform="translate(493,672)"/>
<path d="M0 0 C0.33 0 0.66 0 1 0 C0.85890014 2.10448938 0.71195825 4.2085877 0.5625 6.3125 C0.48128906 7.48425781 0.40007812 8.65601563 0.31640625 9.86328125 C0 13 0 13 -1 16 C-7.6 16 -14.2 16 -21 16 C-20.67 14.02 -20.34 12.04 -20 10 C-19.67 10.99 -19.34 11.98 -19 13 C-13.39 13 -7.78 13 -2 13 C-1.855625 11.040625 -1.71125 9.08125 -1.5625 7.0625 C-1.125 1.125 -1.125 1.125 0 0 Z " fill="#E7EAED" transform="translate(373,437)"/>
<path d="M0 0 C10.56 0 21.12 0 32 0 C32 0.33 32 0.66 32 1 C29.03 1 26.06 1 23 1 C23 1.66 23 2.32 23 3 C15.08 2.67 7.16 2.34 -1 2 C-0.67 1.34 -0.34 0.68 0 0 Z " fill="#EEEFF1" transform="translate(481,392)"/>
<path d="M0 0 C0.66 0 1.32 0 2 0 C2 1.32 2 2.64 2 4 C1.34 4 0.68 4 0 4 C0.185625 4.86625 0.37125 5.7325 0.5625 6.625 C1.00667933 10.05152628 0.71954492 12.64212371 0 16 C-0.99 15.67 -1.98 15.34 -3 15 C-2.69257097 12.68682039 -2.37892298 10.37446648 -2.0625 8.0625 C-1.88847656 6.77472656 -1.71445312 5.48695313 -1.53515625 4.16015625 C-1 1 -1 1 0 0 Z " fill="#F0F1F2" transform="translate(305,470)"/>
<path d="M0 0 C0.99 0.33 1.98 0.66 3 1 C2.0409375 2.051875 2.0409375 2.051875 1.0625 3.125 C-1.16386102 6.22841233 -1.65080943 8.24620139 -2 12 C-2.66 11.67 -3.32 11.34 -4 11 C-3.38461538 3.49230769 -3.38461538 3.49230769 -1.4375 1 C-0.963125 0.67 -0.48875 0.34 0 0 Z " fill="#ECEEF0" transform="translate(471,536)"/>
<path d="M0 0 C0.66 0 1.32 0 2 0 C3.5078125 1.96875 3.5078125 1.96875 5.125 4.5 C5.66382813 5.3353125 6.20265625 6.170625 6.7578125 7.03125 C7.16773438 7.6809375 7.57765625 8.330625 8 9 C5.15776803 7.63760782 3.03972359 6.44766831 1 4 C1 3.34 1 2.68 1 2 C0.34 1.67 -0.32 1.34 -1 1 C-0.67 0.67 -0.34 0.34 0 0 Z " fill="#EBEEF0" transform="translate(563,371)"/>
<path d="M0 0 C2.30143236 3.45214853 2.13833854 4.23479324 1.625 8.1875 C1.51414062 9.08855469 1.40328125 9.98960937 1.2890625 10.91796875 C1.19367188 11.60503906 1.09828125 12.29210937 1 13 C0.67 13 0.34 13 0 13 C-0.19397476 11.02145742 -0.38001321 9.0421352 -0.5625 7.0625 C-0.66691406 5.96035156 -0.77132813 4.85820312 -0.87890625 3.72265625 C-0.91886719 2.82417969 -0.95882813 1.92570312 -1 1 C-0.67 0.67 -0.34 0.34 0 0 Z " fill="#EEEEF0" transform="translate(389,485)"/>
<path d="M0 0 C0.66 0 1.32 0 2 0 C2 1.32 2 2.64 2 4 C1.34 4 0.68 4 0 4 C-0.33 5.65 -0.66 7.3 -1 9 C-2.25541557 5.23375329 -1.37061958 3.62811066 0 0 Z " fill="#E8EAED" transform="translate(305,470)"/>
<path d="M0 0 C0.66 0 1.32 0 2 0 C3.2890625 1.75 3.2890625 1.75 4.625 4 C5.07101562 4.7425 5.51703125 5.485 5.9765625 6.25 C6.31429688 6.8275 6.65203125 7.405 7 8 C5.68 7.34 4.36 6.68 3 6 C3 5.34 3 4.68 3 4 C2.01 3.67 1.02 3.34 0 3 C0 2.01 0 1.02 0 0 Z " fill="#EAEEEF" transform="translate(320,370)"/>
</svg>
