<!DOCTYPE svg PUBLIC "-//W3C//DTD SVG 1.1//EN" "http://www.w3.org/Graphics/SVG/1.1/DTD/svg11.dtd">

<!-- Uploaded to: SVG Repo, www.svgrepo.com, Transformed by: SVG Repo Mixer Tools -->
<svg fill="#32cd32" version="1.1" id="Capa_1" xmlns="http://www.w3.org/2000/svg" xmlns:xlink="http://www.w3.org/1999/xlink" width="800px" height="800px" viewBox="0 0 741.312 741.312" xml:space="preserve" transform="matrix(-1, 0, 0, 1, 0, 0)">

<g id="SVGRepo_bgCarrier" stroke-width="0"/>

<g id="SVGRepo_tracerCarrier" stroke-linecap="round" stroke-linejoin="round"/>

<g id="SVGRepo_iconCarrier"> <g> <g> <path d="M607.415,291.687l-0.025-0.053c0.03,0.007,0.062,0.015,0.096,0.019C607.463,291.667,607.436,291.673,607.415,291.687z"/> <path d="M598.092,276.257c-0.003-0.001-0.005-0.001-0.006-0.001c0.001-0.016,0.006-0.032,0.006-0.047V276.257z"/> </g> <path d="M499.861,385.486c-10.475-48.332-59.895-47.502-59.895-47.502L450.4,65.71c0.887-16.849-12.076-31.24-28.927-32.112 c-16.849-0.886-31.239,12.062-32.11,28.918c0,0-9.99,234.06-10.188,234.867c0,0-1.646,7.817-9.946,7.774 c-5.689-0.029-10.291-4.602-10.291-10.282l-0.229-264.321C358.708,13.683,345.032,0,328.154,0s-30.569,13.683-30.569,30.554 v269.343c0,5.003-4.059,9.054-9.061,9.054c-4.987,0-9.046-4.051-9.046-9.054l-7.945-236.545 c-0.615-16.863-14.763-30.054-31.641-29.454c-16.863,0.601-30.056,14.756-29.453,31.626l8.131,238.446 c0.242,6.217-4.587,11.447-10.79,11.69c-6.217,0.25-11.447-4.587-11.69-10.79l-13.405-133.521 c-1.185-16.835-10.675-31.934-28.652-29.49c-16.492,2.244-21.208,15.699-20.037,32.548l17.292,246.871 c0.573,73.721,14.134,159.338,49.777,204.955v75.287c0,21.979,17.82,39.793,39.8,39.793h135.32 c21.979,0,39.787-17.814,39.787-39.793v-49.885l0.172-24.357c27.724-4.789,86.746-95.344,88.762-123.326 C504.906,503.953,504.49,406.852,499.861,385.486z"/> </g> </g>

</svg>